<?xml version="1.0" encoding="UTF-8"?>
<svg width="40px" height="40px" viewBox="0 0 40 40" version="1.1" xmlns="http://www.w3.org/2000/svg" xmlns:xlink="http://www.w3.org/1999/xlink">
    <!-- Generator: sketchtool 52.5 (67469) - http://www.bohemiancoding.com/sketch -->
    <title>7120CD96-8435-454E-9D78-4F08FF71AF80</title>
    <desc>Created with sketchtool.</desc>
    <g id="Page-1" stroke="none" stroke-width="1" fill="none" fill-rule="evenodd" opacity="0.100000001">
        <g id="garantii" transform="translate(-360.000000, -663.000000)" fill="#030104" fill-rule="nonzero">
            <g id="Group-4" transform="translate(340.000000, 637.000000)">
                <g id="1268" transform="translate(20.000000, 26.000000)">
                    <path d="M20,0 C8.955,0 0,8.955 0,20 C0,31.045 8.955,40 20,40 C31.045,40 40,31.045 40,20 C40,8.955 31.045,0 20,0 Z M20,32.7666667 C18.4366667,32.7666667 17.3666667,31.5616667 17.3666667,30 C17.3666667,28.3933333 18.4816667,27.2333333 20,27.2333333 C21.605,27.2333333 22.6333333,28.3933333 22.6333333,30 C22.6333333,31.5633333 21.605,32.7666667 20,32.7666667 Z M21.0366667,22.2016667 C20.6383333,23.56 19.3833333,23.5833333 18.965,22.2016667 C18.4833333,20.6083333 16.7716667,14.56 16.7716667,10.6316667 C16.7716667,5.44833333 23.2566667,5.42333333 23.2566667,10.6316667 C23.255,14.5833333 21.4516667,20.7883333 21.0366667,22.2016667 Z" id="Shape"></path>
                </g>
            </g>
        </g>
    </g>
</svg>